<svg class="loading-spinner" width="128px"  height="128px"  xmlns="http://www.w3.org/2000/svg" xmlns:xlink="http://www.w3.org/1999/xlink" viewBox="0 0 100 100" preserveAspectRatio="xMidYMid" style="background: none;"><g transform="rotate(0 50 50)">
  <rect x="45.5" y="15.5" rx="24.57" ry="8.370000000000001" width="9" height="17" fill="#5cb85c">
    <animate attributeName="opacity" values="1;0" times="0;1" dur="1s" begin="-0.8571428571428571s" repeatCount="indefinite"></animate>
  </rect>
</g><g transform="rotate(51.42857142857143 50 50)">
  <rect x="45.5" y="15.5" rx="24.57" ry="8.370000000000001" width="9" height="17" fill="#5cb85c">
    <animate attributeName="opacity" values="1;0" times="0;1" dur="1s" begin="-0.7142857142857143s" repeatCount="indefinite"></animate>
  </rect>
</g><g transform="rotate(102.85714285714286 50 50)">
  <rect x="45.5" y="15.5" rx="24.57" ry="8.370000000000001" width="9" height="17" fill="#5cb85c">
    <animate attributeName="opacity" values="1;0" times="0;1" dur="1s" begin="-0.5714285714285714s" repeatCount="indefinite"></animate>
  </rect>
</g><g transform="rotate(154.28571428571428 50 50)">
  <rect x="45.5" y="15.5" rx="24.57" ry="8.370000000000001" width="9" height="17" fill="#5cb85c">
    <animate attributeName="opacity" values="1;0" times="0;1" dur="1s" begin="-0.42857142857142855s" repeatCount="indefinite"></animate>
  </rect>
</g><g transform="rotate(205.71428571428572 50 50)">
  <rect x="45.5" y="15.5" rx="24.57" ry="8.370000000000001" width="9" height="17" fill="#5cb85c">
    <animate attributeName="opacity" values="1;0" times="0;1" dur="1s" begin="-0.2857142857142857s" repeatCount="indefinite"></animate>
  </rect>
</g><g transform="rotate(257.14285714285717 50 50)">
  <rect x="45.5" y="15.5" rx="24.57" ry="8.370000000000001" width="9" height="17" fill="#5cb85c">
    <animate attributeName="opacity" values="1;0" times="0;1" dur="1s" begin="-0.14285714285714285s" repeatCount="indefinite"></animate>
  </rect>
</g><g transform="rotate(308.57142857142856 50 50)">
  <rect x="45.5" y="15.5" rx="24.57" ry="8.370000000000001" width="9" height="17" fill="#5cb85c">
    <animate attributeName="opacity" values="1;0" times="0;1" dur="1s" begin="0s" repeatCount="indefinite"></animate>
  </rect>
</g></svg>